<?xml version="1.0" encoding="utf-8"?>
<!-- Generator: Adobe Illustrator 16.2.0, SVG Export Plug-In . SVG Version: 6.00 Build 0)  -->
<!DOCTYPE svg PUBLIC "-//W3C//DTD SVG 1.1//EN" "http://www.w3.org/Graphics/SVG/1.1/DTD/svg11.dtd">
<svg version="1.1" id="Layer_1" xmlns="http://www.w3.org/2000/svg" xmlns:xlink="http://www.w3.org/1999/xlink" x="0px" y="0px"
	 width="400px" height="400px" viewBox="0 0 400 400" enable-background="new 0 0 400 400" xml:space="preserve">
<path fill="none" stroke="#000000" stroke-width="6" stroke-linecap="round" stroke-linejoin="round" stroke-miterlimit="10" d="
	M84.669,74.457c-0.021,3.628-3.344,6.077-5.469,8.614c-2.849,3.407-6.504,6.358-9.762,9.425c-2.543,2.395-8.63,5.609-8.446,9.601
	c0.114,2.491,3.174,6.367,4.594,8.404c1.46,2.099,4.174,5.813,6.238,7.304c2.614,1.879,4.659,0.692,7.337-0.757
	c1.639-0.889,3.603-3.398,5.2-3.761c1.859,7.512,2.865,16.066,3.154,23.774c0.452,12.067,1.3,24.044,1.31,36.14
	c0.004,6.348-0.589,13.027,0.308,19.291c0.837,5.858,1.154,11.394,1.081,17.387c-0.042,3.471,1.435,5.215,1.375,8.633
	c-0.019,1.126-0.646,4.47,0.215,5.325c0.866,0.862,4.123,0.221,5.259,0.208c7.74-0.086,17.244,1.485,24.794-0.142
	c0.391-1.175,0.458-2.379,0.205-3.608c0.151-2.342,0.674-3.968,1.081-6.226c0.873-4.839,0.309-10.05,0.309-14.956
	c0-13.026,0-26.055,0-39.081c0-20.701,0-41.397,0-62.094c0-4.597,0.003-9.19,0-13.786c0-1.719,0.756-5.51,0.099-7.024
	c-0.992-2.28-4.691-1.292-7.024-1.284c-2.289,0.007-4.642,0.156-6.925,0.031c-2.982-0.162-5.216-1.453-8.31-1.414
	c-5.077,0.066-10.159-0.004-15.237-0.004"/>
<path fill="none" stroke="#000000" stroke-width="6" stroke-linecap="round" stroke-linejoin="round" stroke-miterlimit="10" d="
	M144.228,95.234c0.88-0.238,1.724-0.169,2.534,0.208c0.053,2.733,1.64,3.331,3.05,5.306c1.762,2.466,2.469,5.405,4.081,8.03
	c1.568,2.555,3.678,4.71,5.258,7.225c1.506,2.396,2.259,4.579,4.47,6.479c1.757-0.736,4.184-5.212,5.512-6.78
	c2.603-3.067,5.222-5.516,8.402-8.068c3.747-3.01,7.525-4.354,12.401-4.116c5.06,0.247,9.48,5.065,9.722,10.004
	c0.456,9.276,1.005,19.206-2.77,27.729c-2.468,5.572-4.177,11.368-7.267,16.653c-3.078,5.266-6.467,10.352-9.453,15.662
	c-3.896,6.93-7.626,15.886-13.811,21.157c-3.094,2.637-5.401,6.338-8.285,9.593c-2.735,3.087-6.843,7.272-8.229,11.14
	c3.888,1.341,9.682,0.281,13.749,0.281c6.01,0,12.018,0,18.028,0c10.284,0,20.568,0,30.852,0c4.273,0,13.921,1.442,16.345-2.566
	c0.666-1.104-0.101-5.918-0.099-7.169c0.002-2.178,0-4.357,0-6.532c0-3.549,1.112-9.358-0.138-12.643
	c-6.33-1.742-13.126,0.98-19.319,1.241c-2.192,0.091-4.71-0.484-6.859-0.104c-2.34,0.412-4,2.303-6.507,1.314
	c2.505-5.344,7.472-9.222,10.733-14.022c4.036-5.94,7.033-13.126,10.67-19.354c4.41-7.549,7.979-15.584,11.415-23.616
	c3.083-7.204,5.662-14.204,5.579-22.151c-0.108-9.992,0.599-20.167,0-30.138c-0.429-7.119-8.332-10.405-13.884-12.85
	c-6.792-2.988-13.495-2.384-20.847-2.384c-8.479,0-16.055,1.227-23.475,5.847c-6.763,4.212-14.069,7.681-19.701,13.471
	c-1.325,1.364-2.42,2.935-3.847,4.26c-1.331,1.235-3.461,2.328-4.567,3.737c-2.59,3.305-2.939,4.803,0.412,7.31"/>
<path fill="none" stroke="#000000" stroke-width="6" stroke-linecap="round" stroke-linejoin="round" stroke-miterlimit="10" d="
	M255.035,93.851c-0.388,1.932,0.8,4.196,1.666,5.851c1.667,3.185,3.745,6.399,5.599,9.46c2.457,4.055,4.492,9.871,7.938,13.213
	c7.359-6.614,16.377-16.695,27.768-13.007c4.438,1.436,6.759,9.107,6.926,13.16c0.423,10.352,0.046,19.892-4.118,29.496
	c-8.148,18.8-20.649,33.779-33.312,49.549c-2.061,2.566-4.687,4.581-6.613,7.238c-1.616,2.229-2.902,4.539-4.81,6.579
	c-2.604,2.779-5.706,6.478-8.898,8.376c4.051,1.393,10.092,0.279,14.399,0.279c6.591,0,13.182,0,19.772,0
	c11.88,0,23.282-0.806,35.039-1.351c3.784-0.176,6.781-1.44,10.668-1.419c2.778,0.017,6.985,0.99,8.409-1.29
	c0.337-0.538-0.095-3.859-0.099-4.491c-0.017-3.033,0-6.065,0-9.1c0-3.545,0.597-7.773-0.137-11.226
	c-2.813-0.88-6.521-0.208-9.487-0.209c-3.716-0.002-7.434,0-11.152,0c-5.763,0-11.863-0.561-17.583,0.132
	c1.757-0.436,2.93-2.76,4.056-3.925c2.031-2.104,3.79-3.358,5.525-5.799c4.627-6.503,9.061-13.171,13.922-19.495
	c4.958-6.45,8.659-14.521,12.153-21.853c3.156-6.622,5.197-13.874,6.583-21.085c1.041-5.413,0.275-11.48,0.275-16.996
	c0-3.438,0.519-7.38-0.312-10.705c-1.913-7.651-7.872-13.654-14.924-17.039c-11.367-5.456-27.131-5.078-38.781-1.307
	c-5.995,1.939-11.284,4.242-16.626,7.234c-3.531,1.974-12.938,6.513-13.846,11.111"/>
<path fill="none" stroke="#000000" stroke-width="6" stroke-linecap="round" stroke-linejoin="round" stroke-miterlimit="10" d="
	M123.667,76.333c-0.017-0.146-0.033-0.293-0.05-0.439c0.682,1.583,2.397,2.819,3.383,4.257c1.194,1.74,2.643,3.166,3.852,4.85
	c1.475,2.055,4.703,4.681,4.828,7.32c0.187,3.926-0.013,7.916-0.013,11.848c0,2.26-0.173,4.583-0.035,6.834
	c0.167,2.719,0.726,5.213,0.704,7.995c-0.037,4.742,0.978,9.476,1.331,14.17c0.183,2.432,0.681,4.676,0.665,7.166
	c-0.017,2.678,0.002,5.356,0.002,8.034c0,2.271,0.009,4.542,0,6.813c-0.009,2.254,0.48,4.122,0.701,6.321
	c0.434,4.326-0.034,8.979-0.034,13.334c0,9.394,0,18.788,0,28.182c0,3.771,0,7.542,0,11.313c0,1.507,0.009,3.014,0,4.521
	c-0.01,1.648,0.377,2.604,0.701,4.148c0.132,0.634-0.13,1.37-0.05,2.016c0.082,0.649,0.436,1.007,0.534,1.466
	c0.265,1.236,0.148,2.563,0.148,3.852c0,0.734,0.433,3.388-0.101,3.896c-0.737,0.704-3.124-0.426-3.899-0.712
	c-5.049-1.862-9.275-5.496-14-7.852"/>
<path fill="none" stroke="#000000" stroke-width="6" stroke-linecap="round" stroke-linejoin="round" stroke-miterlimit="10" d="
	M91.667,225c0.23,0.701,0.816,1.415,1.301,1.986c1.087,1.282,2.165,2.872,3.333,4.048c1.096,1.103,2.671,1.663,3.884,2.614
	c1.43,1.122,2.675,2.326,4.179,3.364c0.681,0.47,1.267,1.034,1.95,1.485c0.763,0.503,1.859,0.806,2.537,1.316
	c0.971,0.73,0.844,1.02,2.131,1.198c1.332,0.186,1.59-0.458,2.65-0.714c0.81-0.195,1.863,0.104,2.701,0.05
	c1.207-0.08,2.124-0.64,3.333-0.698c1.319-0.063,2.095-0.179,3.333-0.502c1.063-0.277,2.163,0.09,3.185-0.281
	c0.76-0.276,1.163-1.089,2.148-1.235c1.187-0.177,1.61-0.067,2.667-0.632c1.815-0.971,3.871-1.295,6-1.334"/>
<path fill="none" stroke="#000000" stroke-width="6" stroke-linecap="round" stroke-linejoin="round" stroke-miterlimit="10" d="
	M73,119.666c2.683-0.059,4.614,2.346,6.701,3.867c0.853,0.622,1.71,1.1,2.613,1.634c0.778,0.461,1.839,1.677,2.686,1.833"/>
<path fill="none" stroke="#000000" stroke-width="6" stroke-linecap="round" stroke-linejoin="round" stroke-miterlimit="10" d="
	M163,121.666c0.875,0.859,1.66,1.809,2.664,2.519c1.091,0.771,1.36,1.145,2.166,2.186c1.108,1.432,2.662,2.577,4.017,3.796
	c0.953,0.856,1.727,2.443,2.985,1.381c0.679-0.574,0.88-1.842,1.336-2.582c0.564-0.914,1.346-1.82,2.017-2.666
	c0.894-1.127,2.181-2.134,3.445-2.815c0.699-0.377,1.523-0.663,2.2-0.984c0.864-0.409,1.597-0.989,2.488-1.351
	c3.785-1.537,7.302-1.482,11.349-1.482"/>
<path fill="none" stroke="#000000" stroke-width="6" stroke-linecap="round" stroke-linejoin="round" stroke-miterlimit="10" d="
	M234.333,76.333c-0.45,2.127,1.898,5.495,2.832,7.336c0.676,1.332,1.203,2.705,1.853,4.032c0.615,1.256,0.858,2.687,1.445,3.965
	c0.358,0.444,0.716,0.89,1.074,1.334c0.281,0.623,0.338,1.353,0.614,2c0.615,1.443,1.15,2.52,1.497,4
	c0.293,1.254,0.703,1.995,0.684,3.333c-0.02,1.333,0.002,2.667,0.002,4c0,4.861,0.213,9.776,0.016,14.632
	c-0.06,1.473-0.479,2.758-0.846,4.181c-0.453,1.756-0.341,3.556-1.006,5.237c-0.913,2.313-1.618,4.792-2.185,7.281
	c0.104,0.465,0.074,0.922-0.09,1.37c-0.32,0.566-0.908,0.708-1.237,1.265c-0.743,1.257-0.665,2.771-1.32,4.034
	c-1.149,2.216-1.922,4.801-2.83,7.185c-1.649,4.328-5.146,7.778-7.667,11.631c-2.769,4.231-5.748,8.23-8.683,12.553
	c-1.126,1.658-1.908,3.409-2.983,5.152c-0.565,0.917-1.433,1.744-2.018,2.628c-0.54,0.814-0.655,1.966-1.817,2.185"/>
<path fill="none" stroke="#000000" stroke-width="6" stroke-linecap="round" stroke-linejoin="round" stroke-miterlimit="10" d="
	M150.333,213c1.487,0.292,3.083,2.955,4,4c1.856,2.115,3.873,4.259,5.333,6.664c1.374,2.262,3.308,3.915,4.813,6.005
	c0.564,0.783,1.603,2.43,2.486,2.712c0.861,0.274,2.44-0.048,3.368-0.048c11.062,0,22.123,0,33.185,0c2.494,0,4.987,0,7.481,0
	c2.095,0,4.614,0.396,6.667,0.034c1.255-0.221,1.987-0.736,3.333-0.701c1.346,0.035,2.079-0.48,3.333-0.7
	c1.007-0.177,2.3,0.018,3.331,0.032c1.299,0.018,1.568-0.442,2.635-0.699c1.042-0.252,2.313,0.19,3.383,0.05
	c0.879-0.116,1.846-0.379,2.649-0.685c0.431,0.114,0.847,0.08,1.248-0.101c0.621-0.684-0.356-1.517-0.584-2.048
	c-0.689-1.611-0.809-2.537-1.998-3.85c-1.422-1.57-2.929-3.563-3.995-5.335c-0.494-0.822-0.712-1.439-1.318-2.016
	c-0.881-0.838-1.857-1.067-2.018-2.649"/>
<path fill="none" stroke="#000000" stroke-width="6" stroke-linecap="round" stroke-linejoin="round" stroke-miterlimit="10" d="
	M230.333,189c-0.026-0.315-0.153-0.57-0.381-0.765c1.203,1.687,2.488,3.162,3.749,4.765c0.588,0.748,0.777,1.907,1.447,2.55
	c0.358,0.344,1.208,0.55,1.684,0.95c3.013,2.541,2.167,6.266,2.167,9.867c0,3.767,0,7.533,0,11.299c0,1.778,0,3.556,0,5.334
	c0,1.816,0.415,4.232-0.148,5.946c-0.606-0.094-0.714-0.627-0.518-1.28"/>
<path fill="none" stroke="#000000" stroke-width="6" stroke-linecap="round" stroke-linejoin="round" stroke-miterlimit="10" d="
	M267.667,121.666c1.511-0.025,2.301,1.861,3.148,2.831c1.104,1.264,2.173,2.669,3.373,3.87c0.907,0.909,1.776,1.815,2.645,2.813
	c0.787,0.903,2.391,1.082,2.316,2.403c0.962-0.24,1.702-1.344,2.521-1.937c1.137-0.824,2.198-1.661,3.331-2.499
	c1.01-0.747,2.193-1.475,3.349-1.998c1.016-0.46,1.259-0.671,2.133-1.336c1.462-1.112,3.523-0.838,5.169-1.63
	c2.58-1.242,4.503-1.185,7.349-1.185"/>
<path fill="none" stroke="#000000" stroke-width="6" stroke-linecap="round" stroke-linejoin="round" stroke-miterlimit="10" d="
	M247.667,222.333c0.033,1.755,0.073,3.188,1.151,4.701c0.401,0.563,0.962,0.709,1.365,1.265c0.617,0.849,0.604,1.797,0.966,2.717
	c0.535,1.358,1.733,2.747,2.518,3.984c0.549,0.864,0.923,1.851,1.479,2.701c0.515,0.786,1.356,0.688,1.301,1.849
	c2.029,0.604,4.938,0.116,7.071,0.116c2.321,0,4.642,0,6.963,0c4.84,0,9.679,0,14.519,0c4.349,0,9.204,0.557,13.333-0.518
	c1.069-0.278,2.226-0.17,3.333-0.15c1.343,0.022,2.079-0.479,3.333-0.699c1.007-0.178,2.301,0.018,3.331,0.032
	c1.406,0.019,2.037-0.512,3.32-0.681c4.271-0.563,9.032,0.016,13.349,0.016c4.667,0,9.333,0,14,0c1.169,0,5.856,0.624,6.082-0.653
	c0.066-0.376-1.009-1.864-1.233-2.198c-0.594-0.889-1.49-1.699-2.034-2.646c-0.998-1.735-2.297-3.381-3.35-5.185
	c-0.527-0.904-0.819-1.698-1.465-2.636c-0.752-1.093-1.858-2.658-2-4.016"/>
<path fill="none" stroke="#000000" stroke-width="6" stroke-linecap="round" stroke-linejoin="round" stroke-miterlimit="10" d="
	M347,237c-0.184-0.038-0.369-0.076-0.553-0.114c-0.884-3.015-0.114-7.381-0.114-10.553c0-3.777,0-7.556,0-11.333
	c0-1.776-0.026-3.555-0.002-5.331c0.029-2.226-1.336-2.987-2.681-4.687c-1.285-1.624-2.704-3.074-4.015-4.665
	c-0.81-0.982-1.95-3.052-3.301-3.317"/>
<path fill="none" stroke="#000000" stroke-width="6" stroke-linecap="round" stroke-linejoin="round" stroke-miterlimit="10" d="
	M315,193.666c0.037-0.185,0.074-0.37,0.111-0.555c2.221-0.253,4.739-1.525,6.59-2.927c0.929-0.703,1.654-1.747,2.614-2.502
	c1.098-0.862,2.223-1.789,3.168-2.831c1.474-1.625,2.915-3.424,4.183-5.186c0.616-0.854,1.266-1.729,1.833-2.686
	c0.618-1.042,1.359-1.805,2.019-2.78c0.768-1.135,1.16-2.678,1.998-3.901c0.605-0.883,1.101-1.702,1.652-2.613
	c0.706-1.167,1.057-2.175,1.647-3.39c0.207-0.424,0.614-0.896,0.849-1.296c0.422-0.721,0.36-1.327,0.65-2.02
	c0.969-2.313,1.619-5.01,2.686-7.349c1.065-2.338,1.539-5.348,1.963-7.966c0.206-1.269,0.599-2.589,0.852-3.852
	c0.064-0.323,0.426-1.008,0.519-1.466c0.144-0.715,0.333-1.311,0.518-2.016c0.194-0.738,0.045-1.284,0.131-2.016
	c0.078-0.666,0.435-0.996,0.536-1.466c0.33-1.53,0.271-3,0.667-4.519c0.329-1.263,0.157-2.691,0.148-4
	c-0.004-0.589-0.171-1.469-0.035-2.034c0.146-0.604,0.59-0.661,0.735-1.265c0.61-2.528-0.034-6.079-0.034-8.701
	c0-2.825,0.075-5.184-0.83-7.852c-0.324-0.954-0.599-2.034-1.006-2.979c-0.479-1.109-1.161-1.989-1.68-2.986
	c-0.492-0.944-0.38-1.943-1.301-2.699c-0.418-0.343-0.954-0.178-1.383-0.616c-0.403-0.413-0.25-1.034-0.58-1.386
	c-0.465-0.494-1.244-0.531-1.753-0.981c-0.407-0.361-0.487-0.878-0.782-1.185c-0.351-0.366-0.866-0.456-1.202-0.797
	c-0.505-0.512-0.533-1.288-0.929-1.703c-0.377-0.291-0.796-0.501-1.256-0.63c-0.516-0.461-0.354-0.999-0.742-1.37
	c-0.55-0.525-1.841-1.242-2.555-1.482"/>
<path fill="none" stroke="#000000" stroke-width="6" stroke-linecap="round" stroke-linejoin="round" stroke-miterlimit="10" d="
	M82.333,265.041c1.722-0.187,3.255,3.241,4.328,4.328c2.79,2.826,5.498,5.865,8.088,8.858c1.649,1.907,3.25,3.427,4.873,5.415
	c0.97,1.189,2.777,2.314,2.291,4.069"/>
<path fill="none" stroke="#000000" stroke-width="6" stroke-linecap="round" stroke-linejoin="round" stroke-miterlimit="10" d="
	M124.583,261.95c-0.218,1.184-1.54,2.059-2.267,2.988c-2.126,2.719-3.997,5.788-5.978,8.633c-2.413,3.466-5.016,8.19-8.446,10.794
	c-1.065,0.81-3.032,1.216-3.711,2.497c-1.095,2.067-0.208,6.564-0.208,8.864c0,3.082,0,6.163,0,9.245
	c0,2.264-0.469,5.129,0.176,7.296c0.285,0.059,0.569,0.117,0.855,0.177"/>
<path fill="none" stroke="#000000" stroke-width="6" stroke-linecap="round" stroke-linejoin="round" stroke-miterlimit="10" d="
	M145.192,270.193c3.771,0.684,2.061,13.54,2.061,16.282c0,5.909,0.035,11.816,0,17.724c-0.009,1.618-0.645,3.507,0.958,4.196
	c1.834,0.789,6.645-0.077,8.526-0.099c4.506-0.05,8.704,1.083,13.237,1.053c2.731-0.021,5.463,0.003,8.193,0.003"/>
<path fill="none" stroke="#000000" stroke-width="6" stroke-linecap="round" stroke-linejoin="round" stroke-miterlimit="10" d="
	M150.345,289.773c0.041-0.286,0.083-0.57,0.123-0.854c3.526-1.269,9.322-0.174,13.02-0.177c5.035-0.004,9.63-0.546,14.5-1.202
	c0.06-0.286,0.12-0.572,0.179-0.859"/>
<path fill="none" stroke="#000000" stroke-width="6" stroke-linecap="round" stroke-linejoin="round" stroke-miterlimit="10" d="
	M144.162,271.225c0.059-0.286,0.118-0.569,0.176-0.855c1.627-0.499,3.289,0.071,4.953-0.382c3.05-0.83,5.912-2.186,9.065-2.886
	c2.572-0.572,4.943-1.519,7.446-2.314c2.213-0.701,3.817-0.748,6.183-0.776"/>
<path fill="none" stroke="#000000" stroke-width="6" stroke-linecap="round" stroke-linejoin="round" stroke-miterlimit="10" d="
	M196.717,308.321c2.115-0.394,3.247-5.502,4.098-7.17c2.492-4.875,4.837-9.852,7.237-14.774c1.938-3.97,4.921-7.177,7.008-11.107
	c0.704-1.327,1.628-5.057,3.247-5.018c1.241,0.028,2.518,3.015,3.091,3.766c1.41,1.84,2.992,3.531,4.405,5.373
	c3.361,4.379,7.266,8.852,10.125,13.526c3.365,5.504,7.569,10.443,10.132,16.203c-0.304,0.076-0.608,0.153-0.912,0.232"/>
<path fill="none" stroke="#000000" stroke-width="6" stroke-linecap="round" stroke-linejoin="round" stroke-miterlimit="10" d="
	M202.899,295.956c0.052-0.286,0.104-0.569,0.156-0.854c0.642-0.335,1.322-0.393,2.041-0.174c2.145-0.144,3.926-0.378,6.051-0.778
	c3.822-0.727,7.821-1.513,11.634-2.086c4.175-0.628,7.738-1.26,12.063-1.26"/>
<path fill="none" stroke="#000000" stroke-width="6" stroke-linecap="round" stroke-linejoin="round" stroke-miterlimit="10" d="
	M259.576,308.321c0.285-0.059,0.57-0.117,0.854-0.177c1.34-4.53-0.177-10.526,0.122-15.23c0.247-3.879,1.099-7.448,1.08-11.379
	c-0.014-2.895-0.482-6.296,0.136-9.125c1.63-0.636,4.499-0.956,6.305-1.239c2.08-0.325,4.615,0.065,6.731,0.054
	c4.363-0.026,5.564,0.514,5.401,5.099c-0.113,3.147-0.895,4.079-3.115,6.232c-1.664,1.612-3.262,3.911-5.149,5.229
	c-1.25,0.873-3.039,1.316-4.352,1.733c-1.934,0.615-3.325,1.178-4.857,2.548c0.019,1.898,5.792,2.897,7.081,3.35
	c5.082,1.777,10.261,3.343,15.544,4.43c3.444,0.708,6.909,1.36,10.354,2.063c2.019,0.413,5.12,1.613,7.144,1.261"/>
<path fill="none" stroke="#000000" stroke-width="6" stroke-linecap="round" stroke-linejoin="round" stroke-miterlimit="10" d="
	M339.954,273.284c1.252-2.585,1.949-4.392-1.015-5.924c-4.117-2.127-7.586-2.312-12.152-2.319c-3.134-0.005-8.734-0.64-10.378,3.043
	c-0.473,1.06-0.563,4.195-0.25,5.258c0.684,2.322,3.269,3.164,5,4.812c4.503,4.29,9.917,6.425,15.029,9.865
	c2.856,1.922,4.837,4.123,3.84,7.938c-1.886,7.212-14.337,9.285-20.684,9.273"/>
</svg>
